
        <svg xmlns="http://www.w3.org/2000/svg" xmlns:xlink="http://www.w3.org/1999/xlink" version="1.1" width="3300" 
        height="870.0771755561273" viewBox="0 0 3300 870.0771755561273">
			
			<g transform="scale(15) translate(10, 10)">
				<defs id="SvgjsDefs1091"></defs><g id="SvgjsG1092" featureKey="nameFeature-0" transform="matrix(1.0734278293568162,0,0,1.0734278293568162,-1.7174869838522293,-12.880706045451321)" fill="#ffffff"><path d="M20.322 27.345 c1.213 0 2.196 0.98328 2.196 2.196 c0 5.7668 -4.692 10.459 -10.459 10.459 s-10.459 -4.692 -10.459 -10.459 l0 -7.0824 c0 -5.7668 4.692 -10.459 10.459 -10.459 s10.459 4.692 10.459 10.459 c0 1.2128 -0.98328 2.196 -2.196 2.196 s-2.196 -0.98328 -2.196 -2.196 c0 -3.3452 -2.7215 -6.0668 -6.0668 -6.0668 s-6.0668 2.7215 -6.0668 6.0668 l0 7.0824 c0 3.3452 2.7215 6.0668 6.0668 6.0668 s6.0668 -2.7215 6.0668 -6.0668 c0 -1.2128 0.98328 -2.196 2.196 -2.196 z M43.176 19.412 c1.2128 0 2.1962 0.98328 2.1962 2.196 l0 15.338 c0 5.7668 -4.692 10.459 -10.459 10.459 c-1.2128 0 -2.196 -0.98328 -2.196 -2.196 s0.98328 -2.196 2.196 -2.196 c2.9375 0 5.3936 -2.0992 5.9484 -4.876 c-1.6902 1.1732 -3.7399 1.8634 -5.9488 1.8634 c-5.7668 0 -10.459 -4.692 -10.459 -10.459 l0 -7.9333 c0 -1.2128 0.98328 -2.196 2.196 -2.196 s2.196 0.98328 2.196 2.196 l0 7.9333 c0 3.3452 2.7215 6.0668 6.0668 6.0668 s6.0668 -2.7215 6.0668 -6.0668 l0 -7.9333 c0 -1.2128 0.98328 -2.196 2.196 -2.196 z M57.575 19.467 c5.6612 0 10.267 4.6056 10.267 10.267 s-4.6056 10.267 -10.267 10.267 c-2.1952 0 -4.23 -0.69476 -5.9008 -1.873 c-0.15676 1.0593 -1.067 1.873 -2.1697 1.873 c-1.2128 0 -2.196 -0.98328 -2.196 -2.196 l0 -23.608 c0 -1.2128 0.98328 -2.196 2.196 -2.196 s2.196 0.98328 2.196 2.196 l0 7.1246 c1.6657 -1.1667 3.6908 -1.8541 5.8744 -1.8541 z M57.575 35.608 c3.2392 0 5.8744 -2.6353 5.8744 -5.8744 s-2.6353 -5.8744 -5.8744 -5.8744 s-5.8744 2.6353 -5.8744 5.8744 s2.6353 5.8744 5.8744 5.8744 z M80.05600000000001 19.412 c5.6764 0 10.294 4.6176 10.294 10.294 c0 1.2128 -0.98328 2.196 -2.196 2.196 l-13.576 0 c0.87292 2.17 2.9995 3.7059 5.4784 3.7059 c1.5765 0 3.0586 -0.6138 4.1732 -1.7286 c0.85784 -0.85756 2.248 -0.85732 3.1058 0 c0.85784 0.85784 0.85756 2.2482 0 3.1058 c-1.9446 1.9443 -4.5296 3.0149 -7.2792 3.0149 c-5.6764 0 -10.294 -4.6176 -10.294 -10.294 s4.6176 -10.294 10.294 -10.294 z M74.5776 27.509999999999998 l10.957 0 c-0.87292 -2.17 -2.9995 -3.7059 -5.4784 -3.7059 s-4.6056 1.5359 -5.4784 3.7059 z M102.59 19.412 c1.2128 0 2.196 0.98328 2.196 2.196 s-0.98328 2.196 -2.196 2.196 c-3.2543 0 -5.902 2.6476 -5.902 5.902 l0 8.098 c0 1.2128 -0.98328 2.196 -2.196 2.196 s-2.196 -0.98328 -2.196 -2.196 l0 -16.196 c0 -1.2128 0.98328 -2.196 2.196 -2.196 c1.1071 0 2.0201 0.81996 2.1716 1.885 c1.677 -1.1856 3.721 -1.885 5.9264 -1.885 z M127.606 30.0756 c0.00082032 0.039258 -0.000625 0.07832 -0.0022656 0.11648 c-0.0010938 0.02332 0.00027344 0.046368 -0.0013672 0.06996 c-0.0010938 0.015117 -0.0030078 0.029922 -0.0041016 0.04504 l-0.0024609 0.027188 c-0.41232 5.4252 -4.9776 9.6648 -10.427 9.6648 c-5.7668 0 -10.459 -4.692 -10.459 -10.459 c0 -1.2128 0.98328 -2.196 2.196 -2.196 s2.196 0.98328 2.196 2.196 c0 3.3452 2.7215 6.0668 6.0668 6.0668 c2.8585 0 5.2916 -2.0127 5.9092 -4.724 l-7.4624 -7.4624 c-0.85756 -0.85756 -0.85756 -2.248 0 -3.1056 c0.85784 -0.85756 2.248 -0.85756 3.1058 0 l8.2428 8.2428 c0.016758 0.016758 0.030742 0.034609 0.04668 0.05164 c0.026914 0.028828 0.053828 0.057384 0.0791 0.087576 c0.023594 0.028008 0.045272 0.056564 0.067228 0.085116 c0.021133 0.027734 0.041992 0.055468 0.061756 0.084024 c0.021953 0.031836 0.04254 0.06422 0.062576 0.096876 c0.017031 0.027734 0.033789 0.055744 0.049728 0.084296 c0.018672 0.034024 0.03625 0.068048 0.053008 0.10262 c0.014805 0.029922 0.029062 0.060116 0.042228 0.09086 c0.014531 0.03375 0.027969 0.0675 0.040588 0.10152 c0.012617 0.03375 0.024414 0.067228 0.035391 0.10152 c0.010156 0.032656 0.019492 0.06504 0.028281 0.097968 c0.0098828 0.036524 0.018945 0.07332 0.026914 0.11066 c0.0068752 0.032383 0.012383 0.064764 0.017891 0.097148 c0.006328 0.037617 0.012109 0.075508 0.016484 0.11367 c0.0038281 0.03457 0.0062892 0.06914 0.0084764 0.10371 c0.0024609 0.035976 0.0046484 0.071952 0.0051952 0.1082 z M106.7313 21.924 c-0.00082032 -0.038984 0.00085936 -0.07832 0.0025 -0.11676 c0.0010938 -0.02332 -0.00027344 -0.046368 0.0013672 -0.06996 c0.0010938 -0.015117 0.0030078 -0.029922 0.0041016 -0.04504 l0.0024609 -0.027188 c0.41232 -5.4252 4.9776 -9.6648 10.427 -9.6648 c5.7668 0 10.459 4.692 10.459 10.459 c0 1.2128 -0.98328 2.196 -2.196 2.196 s-2.196 -0.98328 -2.196 -2.196 c0 -3.3452 -2.7215 -6.0668 -6.0668 -6.0668 c-2.8585 0 -5.2916 2.0127 -5.9092 4.724 l7.4624 7.4624 c0.85756 0.85756 0.85756 2.248 0 3.1056 c-0.4288 0.4288 -0.99072 0.64316 -1.5529 0.64316 s-1.1241 -0.21438 -1.5529 -0.64316 l-8.2428 -8.2428 c-0.016758 -0.016758 -0.030742 -0.034609 -0.04668 -0.05164 c-0.026914 -0.028828 -0.053828 -0.057384 -0.0791 -0.087576 c-0.023594 -0.028008 -0.045272 -0.056564 -0.067228 -0.085116 c-0.021133 -0.027734 -0.041992 -0.055468 -0.061756 -0.084024 c-0.021953 -0.031836 -0.04254 -0.06422 -0.062576 -0.096876 c-0.017031 -0.027734 -0.033789 -0.055744 -0.049728 -0.084296 c-0.018672 -0.034024 -0.03625 -0.068048 -0.053008 -0.10262 c-0.014805 -0.030195 -0.028789 -0.060116 -0.042228 -0.09086 c-0.014531 -0.033476 -0.027969 -0.0675 -0.040588 -0.10152 c-0.012617 -0.033476 -0.024414 -0.066952 -0.035391 -0.10125 c-0.01043 -0.032383 -0.019766 -0.06504 -0.028555 -0.097968 c-0.0098828 -0.036797 -0.018945 -0.07332 -0.026914 -0.11066 c-0.0068752 -0.032383 -0.012383 -0.064764 -0.017891 -0.097148 c-0.006328 -0.037617 -0.012109 -0.075508 -0.016484 -0.11367 c-0.0038281 -0.03457 -0.0062892 -0.06914 -0.0084764 -0.10371 c-0.0024609 -0.035976 -0.0046484 -0.071952 -0.0051952 -0.1082 z M139.858 19.412 c5.6764 0 10.294 4.6176 10.294 10.294 c0 1.2128 -0.98328 2.196 -2.196 2.196 l-13.576 0 c0.87292 2.17 2.9995 3.7059 5.4784 3.7059 c1.5765 0 3.0586 -0.6138 4.1732 -1.7286 c0.85784 -0.85756 2.248 -0.85732 3.1058 0 c0.85784 0.85784 0.85756 2.2482 0 3.1058 c-1.9446 1.9443 -4.5296 3.0149 -7.2792 3.0149 c-5.6764 0 -10.294 -4.6176 -10.294 -10.294 s4.6176 -10.294 10.294 -10.294 z M134.3796 27.509999999999998 l10.957 0 c-0.87292 -2.17 -2.9995 -3.7059 -5.4784 -3.7059 s-4.6056 1.5359 -5.4784 3.7059 z M166.566 33.8792 c0.85756 -0.85756 2.2482 -0.85772 3.1058 0.00011719 c0.85784 0.85756 0.85784 2.248 0 3.1056 c-1.9443 1.9443 -4.5292 3.0149 -7.2792 3.0149 c-5.6764 0 -10.294 -4.6176 -10.294 -10.294 s4.6176 -10.294 10.294 -10.294 c2.7498 0 5.3348 1.0706 7.2788 3.0152 c0.85784 0.85756 0.85784 2.248 0 3.1056 c-0.85756 0.85756 -2.248 0.85756 -3.1056 0 c-1.1145 -1.1148 -2.5968 -1.7286 -4.1732 -1.7286 c-3.2543 0 -5.902 2.6476 -5.902 5.902 s2.6476 5.902 5.902 5.902 c1.5765 0 3.0586 -0.6138 4.1732 -1.7286 z M185.72299999999998 27.468 c1.2128 0 2.196 0.98328 2.196 2.196 s-0.98328 2.196 -2.196 2.196 l-3.4069 0 l0 3.4731 c0 1.2128 -0.98328 2.196 -2.196 2.196 s-2.196 -0.98328 -2.196 -2.196 l0 -3.4731 l-3.4558 0 c-1.2128 0 -2.196 -0.98328 -2.196 -2.196 s0.98328 -2.196 2.196 -2.196 l3.4558 0 l0 -3.3896 c0 -1.2128 0.98328 -2.196 2.196 -2.196 s2.196 0.98328 2.196 2.196 l0 3.3896 l3.4069 0 z"></path></g>
			</g>
		</svg>
	